<svg id="visual" viewBox="0 0 900 600" width="900" height="600" xmlns="http://www.w3.org/2000/svg" xmlns:xlink="http://www.w3.org/1999/xlink" version="1.1"><rect x="0" y="0" width="900" height="600" fill="#100f10"></rect><path d="M0 366L21.5 375.2C43 384.3 86 402.7 128.8 410.3C171.7 418 214.3 415 257.2 408.3C300 401.7 343 391.3 385.8 382C428.7 372.7 471.3 364.3 514.2 372.5C557 380.7 600 405.3 642.8 415C685.7 424.7 728.3 419.3 771.2 409.5C814 399.7 857 385.3 878.5 378.2L600 371L600 601L878.5 601C857 601 814 601 771.2 601C728.3 601 685.7 601 642.8 601C600 601 557 601 514.2 601C471.3 601 428.7 601 385.8 601C343 601 300 601 257.2 601C214.3 601 171.7 601 128.8 601C86 601 43 601 21.5 601L0 601Z" fill="#e150fb"></path><path d="M0 439L21.5 433.3C43 427.7 86 416.3 128.8 410.5C171.7 404.7 214.3 404.3 257.2 414.7C300 425 343 446 385.8 450.2C428.7 454.3 471.3 441.7 514.2 440.7C557 439.7 600 450.3 642.8 451.2C685.7 452 728.3 443 771.2 442.8C814 442.7 857 451.3 878.5 455.7L600 460L600 601L878.5 601C857 601 814 601 771.2 601C728.3 601 685.7 601 642.8 601C600 601 557 601 514.2 601C471.3 601 428.7 601 385.8 601C343 601 300 601 257.2 601C214.3 601 171.7 601 128.8 601C86 601 43 601 21.5 601L0 601Z" fill="#bd4cf6"></path><path d="M0 437L21.5 443.2C43 449.3 86 461.7 128.8 463.5C171.7 465.3 214.3 456.7 257.2 451.3C300 446 343 444 385.8 447.7C428.7 451.3 471.3 460.7 514.2 471.8C557 483 600 496 642.8 498.8C685.7 501.7 728.3 494.3 771.2 488.8C814 483.3 857 479.7 878.5 477.8L600 476L600 601L878.5 601C857 601 814 601 771.2 601C728.3 601 685.7 601 642.8 601C600 601 557 601 514.2 601C471.3 601 428.7 601 385.8 601C343 601 300 601 257.2 601C214.3 601 171.7 601 128.8 601C86 601 43 601 21.5 601L0 601Z" fill="#9749ef"></path><path d="M0 534L21.5 534.2C43 534.3 86 534.7 128.8 531.3C171.7 528 214.3 521 257.2 514.8C300 508.7 343 503.3 385.8 498.5C428.7 493.7 471.3 489.3 514.2 487.3C557 485.3 600 485.7 642.8 486.8C685.7 488 728.3 490 771.2 498.8C814 507.7 857 523.3 878.5 531.2L600 539L600 601L878.5 601C857 601 814 601 771.2 601C728.3 601 685.7 601 642.8 601C600 601 557 601 514.2 601C471.3 601 428.7 601 385.8 601C343 601 300 601 257.2 601C214.3 601 171.7 601 128.8 601C86 601 43 601 21.5 601L0 601Z" fill="#6c46e7"></path><path d="M0 557L21.5 554.2C43 551.3 86 545.7 128.8 541.3C171.7 537 214.3 534 257.2 533.5C300 533 343 535 385.8 541.2C428.7 547.3 471.3 557.7 514.2 558C557 558.3 600 548.7 642.8 548.5C685.7 548.3 728.3 557.7 771.2 556.2C814 554.7 857 542.3 878.5 536.2L600 530L600 601L878.5 601C857 601 814 601 771.2 601C728.3 601 685.7 601 642.8 601C600 601 557 601 514.2 601C471.3 601 428.7 601 385.8 601C343 601 300 601 257.2 601C214.3 601 171.7 601 128.8 601C86 601 43 601 21.5 601L0 601Z" fill="#3142dd"></path></svg>