<svg id="visual" viewBox="0 160 900 140" width="900" height="300" xmlns="http://www.w3.org/2000/svg" xmlns:xlink="http://www.w3.org/1999/xlink" version="1.1"><rect x="0" y="0" width="900" height="300" fill="#100f10"></rect><path d="M0 220L18.8 226.7C37.7 233.3 75.3 246.7 112.8 242.8C150.3 239 187.7 218 225.2 213.8C262.7 209.7 300.3 222.3 337.8 233C375.3 243.7 412.7 252.3 450.2 244.5C487.7 236.7 525.3 212.3 562.8 201.2C600.3 190 637.7 192 675.2 201.2C712.7 210.3 750.3 226.7 787.8 232.3C825.3 238 862.7 233 881.3 230.5L900 228L900 301L881.3 301C862.7 301 825.3 301 787.8 301C750.3 301 712.7 301 675.2 301C637.7 301 600.3 301 562.8 301C525.3 301 487.7 301 450.2 301C412.7 301 375.3 301 337.8 301C300.3 301 262.7 301 225.2 301C187.7 301 150.3 301 112.8 301C75.3 301 37.7 301 18.8 301L0 301Z" fill="#3142dd" stroke-linecap="round" stroke-linejoin="miter"></path></svg>