<svg xmlns="http://www.w3.org/2000/svg" xmlns:xlink="http://www.w3.org/1999/xlink" viewBox="0,0,256,256" width="24px" height="24px" fill-rule="nonzero"><g fill="#ffffff" fill-rule="nonzero" stroke="none" stroke-width="1" stroke-linecap="butt" stroke-linejoin="miter" stroke-miterlimit="10" stroke-dasharray="" stroke-dashoffset="0" font-family="none" font-weight="none" font-size="none" text-anchor="none" style="mix-blend-mode: normal"><g transform="scale(8.53333,8.53333)"><path d="M17.66211,2c-2.0971,0 -3.66211,1.71314 -3.66211,3.66211v3.37305c-2.75029,0.14594 -5.26551,0.87921 -7.27344,2.0293c-0.77378,-0.74305 -1.80988,-1.07301 -2.81445,-1.07227c-1.08919,0.0008 -2.20266,0.37823 -2.9707,1.24219l-0.01758,0.01953l-0.01758,0.01953c-0.73677,0.92079 -1.02851,2.15431 -0.83203,3.37891c0.17943,1.11837 0.82715,2.24108 1.95313,2.97656c-0.00737,0.12415 -0.02734,0.24571 -0.02734,0.37109c0,4.962 5.832,9 13,9c7.168,0 13,-4.038 13,-9c0,-0.12538 -0.01997,-0.24694 -0.02734,-0.37109c1.12597,-0.73549 1.77369,-1.8582 1.95313,-2.97656c0.19647,-1.2246 -0.09526,-2.45812 -0.83203,-3.37891l-0.01758,-0.01953l-0.01758,-0.01953c-0.76815,-0.86408 -1.88143,-1.24139 -2.9707,-1.24219c-1.00466,-0.00074 -2.0409,0.32895 -2.81445,1.07227c-2.00793,-1.15009 -4.52315,-1.88336 -7.27344,-2.0293v-3.37305c0,-0.97903 0.56521,-1.66211 1.66211,-1.66211c0.52069,0 1.15499,0.2609 2.14844,0.60938c0.83981,0.29458 1.93276,0.59232 3.33008,0.68164c0.33425,0.98807 1.26219,1.70898 2.35938,1.70898c1.375,0 2.5,-1.125 2.5,-2.5c0,-1.375 -1.125,-2.5 -2.5,-2.5c-0.93879,0 -1.75246,0.53042 -2.17969,1.30078c-1.19448,-0.06615 -2.07207,-0.30607 -2.84766,-0.57812c-0.90381,-0.31703 -1.73423,-0.72266 -2.81055,-0.72266zM3.91211,11.99219c0.39514,-0.00029 0.77056,0.10341 1.08008,0.27148c-1.10399,0.9215 -1.94162,1.99815 -2.44727,3.17383c-0.26849,-0.33141 -0.43027,-0.7035 -0.49414,-1.10156c-0.10777,-0.67169 0.09324,-1.36989 0.41211,-1.7832c0.30133,-0.32434 0.85157,-0.56011 1.44922,-0.56055zM26.08594,11.99219c0.59782,0.00044 1.14994,0.2363 1.45117,0.56055c0.31887,0.41331 0.51988,1.11151 0.41211,1.7832c-0.06387,0.39806 -0.22565,0.77015 -0.49414,1.10156c-0.50565,-1.17568 -1.34327,-2.25233 -2.44727,-3.17383c0.30881,-0.16788 0.68314,-0.27178 1.07813,-0.27148zM10,14c1.105,0 2,0.895 2,2c0,1.105 -0.895,2 -2,2c-1.105,0 -2,-0.895 -2,-2c0,-1.105 0.895,-2 2,-2zM20,14c1.105,0 2,0.895 2,2c0,1.105 -0.895,2 -2,2c-1.105,0 -2,-0.895 -2,-2c0,-1.105 0.895,-2 2,-2zM20.23828,19.5332c-0.639,1.867 -2.68228,3.4668 -5.23828,3.4668c-2.556,0 -4.59928,-1.59903 -5.23828,-3.33203c1.15,0.933 3.06628,1.59961 5.23828,1.59961c2.172,0 4.08828,-0.66737 5.23828,-1.73437z"></path></g></g></svg>