<svg xmlns="http://www.w3.org/2000/svg" xmlns:xlink="http://www.w3.org/1999/xlink" viewBox="0,0,256,256" width="24px" height="24px" fill-rule="nonzero"><g fill="#ffffff" fill-rule="nonzero" stroke="none" stroke-width="1" stroke-linecap="butt" stroke-linejoin="miter" stroke-miterlimit="10" stroke-dasharray="" stroke-dashoffset="0" font-family="none" font-weight="none" font-size="none" text-anchor="none" style="mix-blend-mode: normal"><g transform="scale(10.66667,10.66667)"><path d="M21.634,4.031c-0.815,0.385 -2.202,1.107 -2.899,1.245c-0.027,0.007 -0.049,0.016 -0.075,0.023c-0.813,-0.802 -1.927,-1.299 -3.16,-1.299c-2.485,0 -4.5,2.015 -4.5,4.5c0,0.131 -0.011,0.372 0,0.5c-3.218,0 -5.568,-1.679 -7.327,-3.837c-0.235,-0.29 -0.485,-0.139 -0.537,0.067c-0.117,0.466 -0.157,1.245 -0.157,1.801c0,1.401 1.095,2.777 2.8,3.63c-0.314,0.081 -0.66,0.139 -1.02,0.139c-0.424,0 -0.912,-0.111 -1.339,-0.335c-0.158,-0.083 -0.499,-0.06 -0.398,0.344c0.405,1.619 2.253,2.756 3.904,3.087c-0.375,0.221 -1.175,0.176 -1.543,0.176c-0.136,0 -0.609,-0.032 -0.915,-0.07c-0.279,-0.034 -0.708,0.038 -0.349,0.582c0.771,1.167 2.515,1.9 4.016,1.928c-1.382,1.084 -3.642,1.48 -5.807,1.48c-0.438,-0.01 -0.416,0.489 -0.063,0.674c1.597,0.838 4.213,1.334 6.082,1.334c7.43,0 11.653,-5.663 11.653,-11.001c0,-0.086 -0.002,-0.266 -0.005,-0.447c0,-0.018 0.005,-0.035 0.005,-0.053c0,-0.027 -0.008,-0.053 -0.008,-0.08c-0.003,-0.136 -0.006,-0.263 -0.009,-0.329c0.589,-0.425 1.491,-1.163 1.947,-1.728c0.155,-0.192 0.03,-0.425 -0.181,-0.352c-0.543,0.189 -1.482,0.555 -2.07,0.625c1.177,-0.779 1.759,-1.457 2.259,-2.21c0.171,-0.257 -0.043,-0.518 -0.304,-0.394z"></path></g></g></svg>