<svg xmlns="http://www.w3.org/2000/svg" xmlns:xlink="http://www.w3.org/1999/xlink" viewBox="0,0,256,256" width="24px" height="24px" fill-rule="nonzero"><g fill="#ffffff" fill-rule="nonzero" stroke="none" stroke-width="1" stroke-linecap="butt" stroke-linejoin="miter" stroke-miterlimit="10" stroke-dasharray="" stroke-dashoffset="0" font-family="none" font-weight="none" font-size="none" text-anchor="none" style="mix-blend-mode: normal"><g transform="scale(5.12,5.12)"><path d="M37.05859,12.98047c-0.8125,-0.03125 -1.56641,0.43359 -1.89844,1.17578c-0.33594,0.74219 -0.19141,1.60938 0.37109,2.20313l6.14453,6.64063h-38.67578c-0.72266,-0.01172 -1.39062,0.36719 -1.75391,0.99219c-0.36719,0.62109 -0.36719,1.39453 0,2.01563c0.36328,0.625 1.03125,1.00391 1.75391,0.99219h38.67578l-6.14453,6.64063c-0.5,0.52344 -0.67578,1.27344 -0.46484,1.96484c0.21094,0.69141 0.77734,1.21484 1.48047,1.37109c0.70703,0.15625 1.44141,-0.08203 1.92188,-0.61719l10.50391,-11.35937l-10.50391,-11.35937c-0.35937,-0.39844 -0.87109,-0.64062 -1.41016,-0.66016z"></path></g></g></svg>